<svg width="103" height="26" viewBox="0 0 103 26" fill="none" xmlns="http://www.w3.org/2000/svg">
<path d="M6.73438 25.75C5.65625 25.75 4.73177 25.6016 3.96094 25.3047C3.19531 25.013 2.58594 24.6146 2.13281 24.1094C1.67969 23.6042 1.38542 23.0365 1.25 22.4062L4.32812 21.9922C4.42187 22.2318 4.57031 22.4557 4.77344 22.6641C4.97656 22.8724 5.24479 23.0391 5.57813 23.1641C5.91667 23.2943 6.32813 23.3594 6.8125 23.3594C7.53646 23.3594 8.13281 23.1823 8.60156 22.8281C9.07552 22.4792 9.3125 21.8932 9.3125 21.0703V18.875H9.17188C9.02604 19.2083 8.80729 19.5234 8.51563 19.8203C8.22396 20.1172 7.84896 20.3594 7.39062 20.5469C6.93229 20.7344 6.38542 20.8281 5.75 20.8281C4.84896 20.8281 4.02865 20.6198 3.28906 20.2031C2.55469 19.7812 1.96875 19.138 1.53125 18.2734C1.09896 17.4036 0.882813 16.3047 0.882813 14.9766C0.882813 13.6172 1.10417 12.4818 1.54688 11.5703C1.98958 10.6589 2.57813 9.97656 3.3125 9.52344C4.05208 9.07031 4.86198 8.84375 5.74219 8.84375C6.41406 8.84375 6.97656 8.95833 7.42969 9.1875C7.88281 9.41146 8.2474 9.69271 8.52344 10.0312C8.80469 10.3646 9.02083 10.6927 9.17188 11.0156H9.29688V9H12.6016V21.1172C12.6016 22.138 12.3516 22.9922 11.8516 23.6797C11.3516 24.3672 10.6589 24.8828 9.77344 25.2266C8.89323 25.5755 7.88021 25.75 6.73438 25.75ZM6.80469 18.3281C7.34115 18.3281 7.79427 18.1953 8.16406 17.9297C8.53906 17.6589 8.82552 17.2734 9.02344 16.7734C9.22656 16.2682 9.32813 15.6641 9.32813 14.9609C9.32813 14.2578 9.22917 13.6484 9.03125 13.1328C8.83333 12.612 8.54688 12.2083 8.17188 11.9219C7.79688 11.6354 7.34115 11.4922 6.80469 11.4922C6.25781 11.4922 5.79688 11.6406 5.42188 11.9375C5.04688 12.2292 4.76302 12.6354 4.57031 13.1562C4.3776 13.6771 4.28125 14.2786 4.28125 14.9609C4.28125 15.6536 4.3776 16.2526 4.57031 16.7578C4.76823 17.2578 5.05208 17.6458 5.42188 17.9219C5.79688 18.1927 6.25781 18.3281 6.80469 18.3281ZM17.3047 25.5C16.8828 25.5 16.487 25.4661 16.1172 25.3984C15.7526 25.3359 15.4505 25.2552 15.2109 25.1562L15.9609 22.6719C16.3516 22.7917 16.7031 22.8568 17.0156 22.8672C17.3333 22.8776 17.6068 22.8047 17.8359 22.6484C18.0703 22.4922 18.2604 22.2266 18.4063 21.8516L18.6016 21.3438L14.2969 9H17.7969L20.2812 17.8125H20.4062L22.9141 9H26.4375L21.7734 22.2969C21.5495 22.9427 21.2448 23.5052 20.8594 23.9844C20.4792 24.4688 19.9974 24.8411 19.4141 25.1016C18.8307 25.3672 18.1276 25.5 17.3047 25.5ZM28.1406 21V9H31.3125V11.1172H31.4531C31.7031 10.4141 32.1198 9.85937 32.7031 9.45312C33.2865 9.04687 33.9844 8.84375 34.7969 8.84375C35.6198 8.84375 36.3203 9.04948 36.8984 9.46094C37.4766 9.86719 37.862 10.4193 38.0547 11.1172H38.1797C38.4245 10.4297 38.8672 9.88021 39.5078 9.46875C40.1536 9.05208 40.9167 8.84375 41.7969 8.84375C42.9167 8.84375 43.8255 9.20052 44.5234 9.91406C45.2266 10.6224 45.5781 11.6276 45.5781 12.9297V21H42.2578V13.5859C42.2578 12.9193 42.0807 12.4193 41.7266 12.0859C41.3724 11.7526 40.9297 11.5859 40.3984 11.5859C39.7943 11.5859 39.3229 11.7786 38.9844 12.1641C38.6458 12.5443 38.4766 13.0469 38.4766 13.6719V21H35.25V13.5156C35.25 12.9271 35.0807 12.4583 34.7422 12.1094C34.4089 11.7604 33.9688 11.5859 33.4219 11.5859C33.0521 11.5859 32.7187 11.6797 32.4219 11.8672C32.1302 12.0495 31.8984 12.3073 31.7266 12.6406C31.5547 12.9687 31.4688 13.3542 31.4688 13.7969V21H28.1406ZM50.1523 21.2031C49.6367 21.2031 49.194 21.0208 48.8242 20.6562C48.4596 20.2865 48.2773 19.8437 48.2773 19.3281C48.2773 18.8177 48.4596 18.3802 48.8242 18.0156C49.194 17.651 49.6367 17.4687 50.1523 17.4687C50.6523 17.4687 51.0898 17.651 51.4648 18.0156C51.8398 18.3802 52.0273 18.8177 52.0273 19.3281C52.0273 19.6719 51.9388 19.987 51.7617 20.2734C51.5898 20.5547 51.3633 20.7812 51.082 20.9531C50.8008 21.1198 50.4909 21.2031 50.1523 21.2031ZM58.0879 14.0625V21H54.7598V9H57.9316V11.1172H58.0723C58.3379 10.4193 58.7832 9.86719 59.4082 9.46094C60.0332 9.04948 60.791 8.84375 61.6816 8.84375C62.515 8.84375 63.2415 9.02604 63.8613 9.39062C64.4811 9.75521 64.9629 10.276 65.3066 10.9531C65.6504 11.625 65.8223 12.4271 65.8223 13.3594V21H62.4941V13.9531C62.4993 13.2187 62.3118 12.6458 61.9316 12.2344C61.5514 11.8177 61.028 11.6094 60.3613 11.6094C59.9134 11.6094 59.5176 11.7057 59.1738 11.8984C58.8353 12.0911 58.5697 12.3724 58.377 12.7422C58.1895 13.1068 58.0931 13.5469 58.0879 14.0625ZM73.8672 21.2344C72.6536 21.2344 71.6042 20.9766 70.7188 20.4609C69.8385 19.9401 69.1589 19.2161 68.6797 18.2891C68.2005 17.3568 67.9609 16.276 67.9609 15.0469C67.9609 13.8073 68.2005 12.724 68.6797 11.7969C69.1589 10.8646 69.8385 10.1406 70.7188 9.625C71.6042 9.10417 72.6536 8.84375 73.8672 8.84375C75.0807 8.84375 76.1276 9.10417 77.0078 9.625C77.8932 10.1406 78.5755 10.8646 79.0547 11.7969C79.5339 12.724 79.7734 13.8073 79.7734 15.0469C79.7734 16.276 79.5339 17.3568 79.0547 18.2891C78.5755 19.2161 77.8932 19.9401 77.0078 20.4609C76.1276 20.9766 75.0807 21.2344 73.8672 21.2344ZM73.8828 18.6562C74.4349 18.6562 74.8958 18.5 75.2656 18.1875C75.6354 17.8698 75.9141 17.4375 76.1016 16.8906C76.2943 16.3437 76.3906 15.7214 76.3906 15.0234C76.3906 14.3255 76.2943 13.7031 76.1016 13.1562C75.9141 12.6094 75.6354 12.1771 75.2656 11.8594C74.8958 11.5417 74.4349 11.3828 73.8828 11.3828C73.3255 11.3828 72.8568 11.5417 72.4766 11.8594C72.1016 12.1771 71.8177 12.6094 71.625 13.1562C71.4375 13.7031 71.3438 14.3255 71.3438 15.0234C71.3438 15.7214 71.4375 16.3437 71.625 16.8906C71.8177 17.4375 72.1016 17.8698 72.4766 18.1875C72.8568 18.5 73.3255 18.6562 73.8828 18.6562ZM84.0039 21L80.7383 9H84.1055L85.9648 17.0625H86.0742L88.0117 9H91.3164L93.2852 17.0156H93.3867L95.2148 9H98.5742L95.3164 21H91.793L89.7305 13.4531H89.582L87.5195 21H84.0039Z" fill="#89CC9C"/>
</svg>
